<svg width="113" height="62" viewBox="0 0 113 62" fill="none" xmlns="http://www.w3.org/2000/svg">
<g filter="url(#filter0_d_126_103)">
<path d="M23.3699 9.59534L23.3699 30.2447L4.86591 30.2447L10.2964 19.92L0.783417 9.59534L23.3699 9.59534Z" fill="#2B63A6"/>
<path d="M78.1965 9.59534L78.1965 30.2447L96.7005 30.2447L91.27 19.92L100.783 9.59534L78.1965 9.59534Z" fill="#2B63A6"/>
<path d="M18.0061 13.4816L23.3696 9.59534V35.0718H18.0061V13.4816Z" fill="#2D4071"/>
<path d="M83.5603 13.4816L78.1968 9.59534V35.0718H83.5603V13.4816Z" fill="#2D4071"/>
<path d="M29.6816 13.4641L29.6816 37.0746L17.171 37.0746C17.171 37.0746 15.6062 37.0746 15.6062 25.2694C15.6062 13.4641 17.171 13.4641 17.171 13.4641L29.6816 13.4641Z" fill="#418ED6"/>
<path d="M71.4541 13.4641L71.4541 37.0746L84.3683 37.0746C84.3683 37.0746 85.9836 37.0746 85.9836 25.2694C85.9836 13.4641 84.3683 13.4641 84.3683 13.4641L71.4541 13.4641Z" fill="#418ED6"/>
<circle cx="50.8717" cy="25.3593" r="24.5758" fill="url(#paint0_linear_126_103)"/>
<circle cx="50.783" cy="25.4176" r="19.5767" fill="url(#paint1_linear_126_103)"/>
<mask id="mask0_126_103" style="mask-type:alpha" maskUnits="userSpaceOnUse" x="34" y="10" width="35" height="34">
<circle cx="51.6589" cy="27.1255" r="16.81" fill="#7D7D7D"/>
</mask>
<g mask="url(#mask0_126_103)">
<circle cx="50.7638" cy="25.3351" r="16.81" fill="#9CA1A3"/>
</g>
<path d="M50.7834 5.48621C61.7727 5.48641 70.7139 14.3315 70.7141 25.2831C70.7141 36.2348 61.7728 45.0807 50.7834 45.0809C39.7939 45.0809 30.8518 36.2349 30.8518 25.2831C30.852 14.3314 39.7941 5.48621 50.7834 5.48621Z" fill="#616161" stroke="#9F9F9F" stroke-width="5"/>
<mask id="mask1_126_103" style="mask-type:alpha" maskUnits="userSpaceOnUse" x="34" y="9" width="36" height="36">
<circle cx="51.7337" cy="27.02" r="17.4378" fill="#C28B37"/>
</mask>
<g mask="url(#mask1_126_103)">
<circle cx="50.8053" cy="25.1627" r="17.4378" fill="url(#paint2_linear_126_103)"/>
</g>
<path d="M51.5828 12.7834L55.516 20.6499L63.3825 21.6332L57.9809 27.6903L59.4493 36.3827L51.5828 32.4495L43.7164 36.3827L45.1979 27.6903L39.7832 21.6332L47.6496 20.6499L51.5828 12.7834Z" fill="url(#paint3_linear_126_103)"/>
<path d="M52.4775 12.3362L56.1709 19.7239L63.5068 20.6409L65.3965 20.8772L64.1289 22.2991L59.0469 27.9973L60.4355 36.2161L60.7637 38.1575L59.002 37.2776L51.583 33.5676L44.1641 37.2776L42.3994 38.1594L42.7305 36.2151L44.1309 27.9973L39.0381 22.3L37.7666 20.8772L39.6592 20.6409L46.9941 19.7239L50.6885 12.3362L51.583 10.5471L52.4775 12.3362Z" stroke="#353535" stroke-opacity="0.2" stroke-width="2"/>
</g>
<defs>
<filter id="filter0_d_126_103" x="-5.05447e-05" y="-5.05447e-05" width="112.535" height="61.6876" filterUnits="userSpaceOnUse" color-interpolation-filters="sRGB">
<feFlood flood-opacity="0" result="BackgroundImageFix"/>
<feColorMatrix in="SourceAlpha" type="matrix" values="0 0 0 0 0 0 0 0 0 0 0 0 0 0 0 0 0 0 127 0" result="hardAlpha"/>
<feOffset dx="5.48449" dy="5.48449"/>
<feGaussianBlur stdDeviation="3.13399"/>
<feComposite in2="hardAlpha" operator="out"/>
<feColorMatrix type="matrix" values="0 0 0 0 0 0 0 0 0 0 0 0 0 0 0 0 0 0 0.3 0"/>
<feBlend mode="normal" in2="BackgroundImageFix" result="effect1_dropShadow_126_103"/>
<feBlend mode="normal" in="SourceGraphic" in2="effect1_dropShadow_126_103" result="shape"/>
</filter>
<linearGradient id="paint0_linear_126_103" x1="50.8717" y1="0.783447" x2="50.8717" y2="49.9351" gradientUnits="userSpaceOnUse">
<stop stop-color="white"/>
<stop offset="1" stop-color="#B1B1B1"/>
</linearGradient>
<linearGradient id="paint1_linear_126_103" x1="50.783" y1="5.84094" x2="50.783" y2="44.9943" gradientUnits="userSpaceOnUse">
<stop stop-color="#898989"/>
<stop offset="1" stop-color="#5F5F5F"/>
</linearGradient>
<linearGradient id="paint2_linear_126_103" x1="50.8053" y1="7.72485" x2="50.8053" y2="42.6005" gradientUnits="userSpaceOnUse">
<stop stop-color="#7D7D7D"/>
<stop offset="1" stop-color="#474747"/>
</linearGradient>
<linearGradient id="paint3_linear_126_103" x1="51.5828" y1="20.3666" x2="51.5828" y2="35.3783" gradientUnits="userSpaceOnUse">
<stop stop-color="white"/>
<stop offset="1" stop-color="#DDE1E1"/>
</linearGradient>
</defs>
</svg>
