<svg width="30" height="30" viewBox="0 0 30 30" fill="none" xmlns="http://www.w3.org/2000/svg">
<path d="M3.75 8.73745C11.018 6.09956 18.982 6.09956 26.25 8.73745" stroke="black" stroke-width="2" stroke-linecap="round" stroke-linejoin="round"/>
<path d="M10.0122 7.14996C10.0122 5.82388 10.539 4.55219 11.4767 3.6145C12.4143 2.67683 13.6861 2.14996 15.0122 2.14996C16.3382 2.14996 17.6101 2.67683 18.5477 3.6145C19.4854 4.55219 20.0122 5.82388 20.0122 7.14996" stroke="black" stroke-width="2" stroke-linecap="round" stroke-linejoin="round"/>
<path d="M15 16.25V22.5" stroke="black" stroke-width="2" stroke-linecap="round" stroke-linejoin="round"/>
<path d="M23.75 12.4875L22.9125 22.4875C22.7781 23.8387 22.1531 25.0939 21.1557 26.0154C20.1582 26.9368 18.8576 27.4605 17.5 27.4875H12.5C11.1424 27.4605 9.8417 26.9368 8.84426 26.0154C7.84681 25.0939 7.22181 23.8387 7.08751 22.4875L6.25 12.4875" stroke="black" stroke-width="2" stroke-linecap="round" stroke-linejoin="round"/>
</svg>
