<svg width="81" height="104" viewBox="0 0 81 104" fill="none" xmlns="http://www.w3.org/2000/svg">
<g filter="url(#filter0_d_120_168)">
<path d="M28.3057 55.0406L37.3869 60.2837L18.9459 92.2244L13.6529 80.4199L28.3057 55.0406Z" fill="#AA75CB"/>
<path d="M28.3057 55.0406L19.2245 49.7976L0.783489 81.7383L13.6529 80.4199L28.3057 55.0406Z" fill="#73488D"/>
<path d="M41.2615 55.0406L32.1803 60.2837L50.6213 92.2244L55.9142 80.4199L41.2615 55.0406Z" fill="#73488D"/>
<path d="M41.2615 55.0406L50.3427 49.7976L68.7837 81.7383L55.9142 80.4199L41.2615 55.0406Z" fill="#AA75CB"/>
<path d="M34.7688 1.28345C52.312 1.28345 66.5334 15.505 66.5334 33.0481C66.5334 50.5913 52.312 64.8127 34.7688 64.8127C17.2257 64.8127 3.00415 50.5912 3.00415 33.0481C3.0042 15.505 17.2257 1.2835 34.7688 1.28345Z" fill="#DC9E42" stroke="#774700"/>
<ellipse cx="34.7687" cy="33.0482" rx="24.405" ry="24.405" fill="#734C12"/>
<mask id="mask0_120_168" style="mask-type:alpha" maskUnits="userSpaceOnUse" x="11" y="11" width="50" height="50">
<ellipse cx="36.0714" cy="35.6535" rx="24.4618" ry="24.4618" fill="#C28B37"/>
</mask>
<g mask="url(#mask0_120_168)">
<ellipse cx="34.7687" cy="33.0482" rx="24.4618" ry="24.4618" fill="#A36D1D"/>
</g>
<path d="M34.9006 16.0306L40.1773 26.5841L50.7308 27.9033L43.4841 36.0295L45.4541 47.6911L34.9006 42.4144L24.3471 47.6911L26.3346 36.0295L19.0703 27.9033L29.6238 26.5841L34.9006 16.0306Z" fill="url(#paint0_linear_120_168)"/>
</g>
<defs>
<filter id="filter0_d_120_168" x="-5.05447e-05" y="-5.05447e-05" width="80.5362" height="103.977" filterUnits="userSpaceOnUse" color-interpolation-filters="sRGB">
<feFlood flood-opacity="0" result="BackgroundImageFix"/>
<feColorMatrix in="SourceAlpha" type="matrix" values="0 0 0 0 0 0 0 0 0 0 0 0 0 0 0 0 0 0 127 0" result="hardAlpha"/>
<feOffset dx="5.48449" dy="5.48449"/>
<feGaussianBlur stdDeviation="3.13399"/>
<feComposite in2="hardAlpha" operator="out"/>
<feColorMatrix type="matrix" values="0 0 0 0 0 0 0 0 0 0 0 0 0 0 0 0 0 0 0.3 0"/>
<feBlend mode="normal" in2="BackgroundImageFix" result="effect1_dropShadow_120_168"/>
<feBlend mode="normal" in="SourceGraphic" in2="effect1_dropShadow_120_168" result="shape"/>
</filter>
<linearGradient id="paint0_linear_120_168" x1="34.9006" y1="16.0306" x2="34.9006" y2="47.6911" gradientUnits="userSpaceOnUse">
<stop stop-color="#FCFF80"/>
<stop offset="0.401042" stop-color="#FDE870"/>
<stop offset="1" stop-color="#FFC759"/>
</linearGradient>
</defs>
</svg>
