<svg width="27" height="27" viewBox="0 0 27 27" fill="none" xmlns="http://www.w3.org/2000/svg">
<path d="M4.5 21.375V19.125H6.75V11.25C6.75 9.69375 7.21875 8.31562 8.15625 7.11562C9.09375 5.89687 10.3125 5.1 11.8125 4.725V3.9375C11.8125 3.46875 11.9719 3.075 12.2906 2.75625C12.6281 2.41875 13.0312 2.25 13.5 2.25C13.9688 2.25 14.3625 2.41875 14.6813 2.75625C15.0188 3.075 15.1875 3.46875 15.1875 3.9375V4.725C16.6875 5.1 17.9062 5.89687 18.8438 7.11562C19.7813 8.31562 20.25 9.69375 20.25 11.25V19.125H22.5V21.375H4.5ZM13.5 24.75C12.8813 24.75 12.3469 24.5344 11.8969 24.1031C11.4656 23.6531 11.25 23.1187 11.25 22.5H15.75C15.75 23.1187 15.525 23.6531 15.075 24.1031C14.6437 24.5344 14.1188 24.75 13.5 24.75ZM9 19.125H18V11.25C18 10.0125 17.5594 8.95312 16.6781 8.07187C15.7969 7.19062 14.7375 6.75 13.5 6.75C12.2625 6.75 11.2031 7.19062 10.3219 8.07187C9.44063 8.95312 9 10.0125 9 11.25V19.125Z" fill="#1D1B20"/>
</svg>
