<svg width="30" height="30" viewBox="0 0 30 30" fill="none" xmlns="http://www.w3.org/2000/svg">
<path fill-rule="evenodd" clip-rule="evenodd" d="M12.1875 7.5C12.1875 6.46446 13.027 5.625 14.0625 5.625H16.25C17.0122 5.625 17.8125 6.35761 17.8125 7.5H19.6875C19.6875 5.53579 18.2493 3.75 16.25 3.75H14.0625C11.9914 3.75 10.3125 5.42894 10.3125 7.5H4.6875L3.75 8.4375V24.375L4.6875 25.3125H25.3125L26.25 24.375V8.4375L25.3125 7.5H12.1875ZM5.625 19.6875V9.375H7.5C7.5 10.4105 6.66054 11.25 5.625 11.25V13.125C7.69606 13.125 9.375 11.4461 9.375 9.375H20.625C20.625 11.4461 22.3039 13.125 24.375 13.125V19.6875C22.3039 19.6875 20.625 21.3664 20.625 23.4375H9.375C9.375 21.3664 7.69606 19.6875 5.625 19.6875ZM5.625 21.5625V23.4375H7.5C7.5 22.402 6.66054 21.5625 5.625 21.5625ZM24.375 11.25C23.3395 11.25 22.5 10.4105 22.5 9.375H24.375V11.25ZM22.5 23.4375H24.375V21.5625C23.3395 21.5625 22.5 22.402 22.5 23.4375ZM15.4811 15.1223L18.5351 14.304L17.7169 11.25L14.6629 12.0683L15.4811 15.1223ZM14.0625 17.8125C14.0625 18.848 13.223 19.6875 12.1875 19.6875C11.152 19.6875 10.3125 18.848 10.3125 17.8125C10.3125 16.777 11.152 15.9375 12.1875 15.9375C13.223 15.9375 14.0625 16.777 14.0625 17.8125ZM17.9594 21.7249L20.6182 18.2656L16.2929 17.6926L17.9594 21.7249Z" fill="black"/>
</svg>
