<svg width="27" height="27" viewBox="0 0 27 27" fill="none" xmlns="http://www.w3.org/2000/svg">
<g clip-path="url(#clip0_133_60)">
<path d="M13.375 17.5693L12.5732 17.4072C11.0686 17.1025 9.8177 16.0565 9.23535 14.6699L9.01172 14.1377L8.43848 14.0654L8.22461 14.0332C6.03457 13.6559 4.375 11.7749 4.375 9.5V8.375C4.375 8.09704 4.46878 7.83952 4.625 7.63086V9.5C4.625 11.4079 5.8572 13.0049 7.53418 13.6123L8.875 14.0977V7.375H4.88184C5.09039 7.21907 5.34732 7.125 5.625 7.125H8.875V4.875H18.125V7.125H21.375C21.6527 7.125 21.9096 7.21907 22.1182 7.375H18.125V14.0977L19.4658 13.6123C21.1428 13.0049 22.375 11.4079 22.375 9.5V7.63086C22.5312 7.83952 22.625 8.09704 22.625 8.375V9.5C22.625 11.8483 20.8564 13.7774 18.5615 14.0654L17.9883 14.1377L17.7646 14.6699C17.1823 16.0565 15.9314 17.1025 14.4268 17.4072L13.625 17.5693V22.875H18.125V23.125H8.875V22.875H13.375V17.5693Z" fill="#FAF9F6" stroke="black" stroke-width="2"/>
</g>
<defs>
<clipPath id="clip0_133_60">
<rect width="27" height="27" fill="white"/>
</clipPath>
</defs>
</svg>
