<svg width="53" height="51" viewBox="0 0 53 51" fill="none" xmlns="http://www.w3.org/2000/svg">
<path d="M18.583 3.21094C23.2021 -0.403355 29.7138 -0.403298 34.333 3.21094L48.584 14.3613C51.0297 16.2751 52.416 19.176 52.416 22.2012V39.5898C52.416 44.9653 48.047 49.579 42.333 49.5791H37.041C34.3684 49.579 32.25 47.5353 32.25 45.0713V36.9277C32.2498 33.4767 29.5053 30.9463 26.458 30.9463C23.4107 30.9463 20.6662 33.4767 20.666 36.9277V45.0713C20.666 47.5354 18.5476 49.579 15.875 49.5791H10.583C4.86921 49.579 0.5 44.9653 0.5 39.5898V22.2012C0.5 19.176 1.88636 16.2751 4.33203 14.3613L18.583 3.21094Z" fill="white" stroke="white"/>
</svg>
