<svg width="53" height="51" viewBox="0 0 53 51" fill="none" xmlns="http://www.w3.org/2000/svg">
<path d="M19.8154 4.78613C23.7106 1.73829 29.2053 1.73832 33.1006 4.78613L47.3516 15.9365C49.3103 17.4692 50.416 19.788 50.416 22.2012V39.5898C50.416 43.8807 46.9226 47.579 42.333 47.5791H37.041C35.3677 47.579 34.25 46.3284 34.25 45.0713V36.9277C34.2498 32.3669 30.6046 28.9463 26.458 28.9463C22.3114 28.9463 18.6662 32.3669 18.666 36.9277V45.0713C18.666 46.3284 17.5483 47.579 15.875 47.5791H10.583C5.99358 47.579 2.5 43.8807 2.5 39.5898V22.2012C2.5 19.788 3.6058 17.4692 5.56445 15.9365L19.8154 4.78613Z" stroke="white" stroke-width="5"/>
</svg>
