<svg width="88" height="114" viewBox="0 0 88 114" fill="none" xmlns="http://www.w3.org/2000/svg">
<g filter="url(#filter0_d_120_106)">
<path d="M35.1599 63.9829L44.3223 69.2728L25.7164 101.499L20.3761 89.5892L35.1599 63.9829Z" fill="#CE4444"/>
<path d="M35.1599 63.9829L25.9975 58.693L7.39162 90.9194L20.3761 89.5892L35.1599 63.9829Z" fill="#983535"/>
<path d="M48.2314 63.9829L39.0691 69.2728L57.6749 101.499L63.0152 89.5892L48.2314 63.9829Z" fill="#983535"/>
<path d="M48.2314 63.9829L57.3938 58.693L75.9997 90.9194L63.0152 89.5892L48.2314 63.9829Z" fill="#CE4444"/>
<circle cx="41.4147" cy="41.7937" r="32.0443" fill="url(#paint0_linear_120_106)" stroke="#765C00"/>
<circle cx="41.4147" cy="41.7939" r="24.6232" fill="#A88300"/>
<mask id="mask0_120_106" style="mask-type:alpha" maskUnits="userSpaceOnUse" x="18" y="19" width="50" height="51">
<circle cx="42.7291" cy="44.4225" r="24.6805" fill="#C28B37"/>
</mask>
<g mask="url(#mask0_120_106)">
<circle cx="41.4149" cy="41.7939" r="24.6805" fill="#C09525"/>
</g>
<path d="M41.4745 26L46.2993 36.8244L55.9489 38.1774L49.3228 46.5122L51.1241 58.4731L41.4745 53.0609L31.8248 58.4731L33.6422 46.5122L27 38.1774L36.6496 36.8244L41.4745 26Z" fill="url(#paint1_linear_120_106)"/>
<path d="M6.9236 23.2993L10.0695 15.5328L6.9236 7.76642L13.8472 11.2953L20.7707 7.76642L17.6248 15.5328L20.7707 23.2993L13.8472 19.7704L6.9236 23.2993Z" fill="white"/>
</g>
<defs>
<filter id="filter0_d_120_106" x="6.14009" y="6.98298" width="81.6121" height="106.269" filterUnits="userSpaceOnUse" color-interpolation-filters="sRGB">
<feFlood flood-opacity="0" result="BackgroundImageFix"/>
<feColorMatrix in="SourceAlpha" type="matrix" values="0 0 0 0 0 0 0 0 0 0 0 0 0 0 0 0 0 0 127 0" result="hardAlpha"/>
<feOffset dx="5.48449" dy="5.48449"/>
<feGaussianBlur stdDeviation="3.13399"/>
<feComposite in2="hardAlpha" operator="out"/>
<feColorMatrix type="matrix" values="0 0 0 0 0 0 0 0 0 0 0 0 0 0 0 0 0 0 0.3 0"/>
<feBlend mode="normal" in2="BackgroundImageFix" result="effect1_dropShadow_120_106"/>
<feBlend mode="normal" in="SourceGraphic" in2="effect1_dropShadow_120_106" result="shape"/>
</filter>
<linearGradient id="paint0_linear_120_106" x1="41.4147" y1="10.2494" x2="41.4147" y2="73.3381" gradientUnits="userSpaceOnUse">
<stop stop-color="#FFC600"/>
<stop offset="1" stop-color="#FFDE69"/>
</linearGradient>
<linearGradient id="paint1_linear_120_106" x1="41.4745" y1="26" x2="41.4745" y2="58.4731" gradientUnits="userSpaceOnUse">
<stop stop-color="#FFFCDD"/>
<stop offset="1" stop-color="#FFE896"/>
</linearGradient>
</defs>
</svg>
