<svg width="82" height="110" viewBox="0 0 82 110" fill="none" xmlns="http://www.w3.org/2000/svg">
<g filter="url(#filter0_d_120_138)">
<path d="M28.7102 58.3146L37.9249 63.8799L19.2128 97.7841L13.842 85.254L28.7102 58.3146Z" fill="#418ED6"/>
<path d="M28.7102 58.3146L19.4955 52.7492L0.783395 86.6535L13.842 85.254L28.7102 58.3146Z" fill="#2B63A6"/>
<path d="M41.8567 58.3146L32.642 63.8799L51.3541 97.7841L56.7249 85.254L41.8567 58.3146Z" fill="#2B63A6"/>
<path d="M41.8567 58.3146L51.0714 52.7492L69.7835 86.6535L56.7249 85.254L41.8567 58.3146Z" fill="#418ED6"/>
<path d="M35.2688 1.28345C53.0867 1.28356 67.4933 16.3869 67.4934 34.97C67.4934 53.5531 53.0868 68.6564 35.2688 68.6565C17.4508 68.6565 3.04419 53.5532 3.04419 34.97C3.04429 16.3869 17.4508 1.28345 35.2688 1.28345Z" fill="#E3E3E3" stroke="#404040"/>
<ellipse cx="35.2684" cy="34.9702" rx="24.7638" ry="25.9052" fill="#595959"/>
<mask id="mask0_120_138" style="mask-type:alpha" maskUnits="userSpaceOnUse" x="11" y="11" width="51" height="53">
<ellipse cx="36.5905" cy="37.7357" rx="24.8214" ry="25.9655" fill="#C28B37"/>
</mask>
<g mask="url(#mask0_120_138)">
<ellipse cx="35.2687" cy="34.9702" rx="24.8214" ry="25.9655" fill="url(#paint0_linear_120_138)"/>
</g>
<path d="M35.4023 16.9065L40.7567 28.1088L51.4653 29.509L44.1121 38.1348L46.111 50.5133L35.4023 44.9122L24.6937 50.5133L26.7105 38.1348L19.3394 29.509L30.048 28.1088L35.4023 16.9065Z" fill="url(#paint1_linear_120_138)"/>
</g>
<defs>
<filter id="filter0_d_120_138" x="-5.05447e-05" y="-5.05447e-05" width="81.536" height="109.537" filterUnits="userSpaceOnUse" color-interpolation-filters="sRGB">
<feFlood flood-opacity="0" result="BackgroundImageFix"/>
<feColorMatrix in="SourceAlpha" type="matrix" values="0 0 0 0 0 0 0 0 0 0 0 0 0 0 0 0 0 0 127 0" result="hardAlpha"/>
<feOffset dx="5.48449" dy="5.48449"/>
<feGaussianBlur stdDeviation="3.13399"/>
<feComposite in2="hardAlpha" operator="out"/>
<feColorMatrix type="matrix" values="0 0 0 0 0 0 0 0 0 0 0 0 0 0 0 0 0 0 0.3 0"/>
<feBlend mode="normal" in2="BackgroundImageFix" result="effect1_dropShadow_120_138"/>
<feBlend mode="normal" in="SourceGraphic" in2="effect1_dropShadow_120_138" result="shape"/>
</filter>
<linearGradient id="paint0_linear_120_138" x1="35.2687" y1="9.00464" x2="35.2687" y2="60.9357" gradientUnits="userSpaceOnUse">
<stop stop-color="#9CA1A3"/>
<stop offset="1" stop-color="#9CA1A3" stop-opacity="0"/>
</linearGradient>
<linearGradient id="paint1_linear_120_138" x1="35.4023" y1="16.9065" x2="35.4023" y2="50.5133" gradientUnits="userSpaceOnUse">
<stop stop-color="#F1F5F5"/>
<stop offset="0.0001" stop-color="white"/>
<stop offset="1" stop-color="#F1F5F5"/>
</linearGradient>
</defs>
</svg>
