<svg width="50" height="50" viewBox="0 0 50 50" fill="none" xmlns="http://www.w3.org/2000/svg">
<path d="M25 25C31.9036 25 37.5 19.4036 37.5 12.5C37.5 5.59644 31.9036 0 25 0C18.0964 0 12.5 5.59644 12.5 12.5C12.5 19.4036 18.0964 25 25 25ZM33.3333 12.5C33.3333 17.1024 29.6024 20.8333 25 20.8333C20.3976 20.8333 16.6667 17.1024 16.6667 12.5C16.6667 7.89763 20.3976 4.16667 25 4.16667C29.6024 4.16667 33.3333 7.89763 33.3333 12.5Z" fill="white"/>
<path d="M50 45.8333C50 50 45.8333 50 45.8333 50H4.16667C4.16667 50 0 50 0 45.8333C0 41.6667 4.16667 29.1667 25 29.1667C45.8333 29.1667 50 41.6667 50 45.8333ZM45.8332 45.8188C45.8273 44.7906 45.1926 41.7102 42.3662 38.8838C39.6484 36.166 34.5379 33.3333 25 33.3333C15.462 33.3333 10.3515 36.166 7.63374 38.8838C4.80731 41.7102 4.1726 44.7906 4.16667 45.8188H45.8332Z" fill="white"/>
</svg>
