<svg width="50" height="51" viewBox="0 0 50 51" fill="none" xmlns="http://www.w3.org/2000/svg">
<path d="M16.4597 50.0937C16.3619 50.0937 16.2641 50.0937 16.1663 50.0937C15.4815 49.9959 14.9923 49.6046 14.601 49.0176L9.80737 40.3108L1.10058 35.5172C0.513603 35.2237 0.122286 34.6367 0.0244573 33.9519C-0.0733718 33.2671 0.122286 32.6801 0.611432 32.191L5.01374 27.7887C5.50289 27.2995 6.18769 27.1039 6.87249 27.2017L11.8618 28.0822L18.4163 21.5276L2.56801 13.7013C1.98104 13.4078 1.58972 12.8208 1.39406 12.136C1.19841 11.4512 1.49189 10.7664 1.98104 10.2773L6.87249 5.38582C7.36164 4.89668 8.14427 4.70102 8.82908 4.79885L29.5688 10.1794L36.8082 2.94009C39.3518 0.396537 45.3193 -1.46222 48.352 1.57049C49.7216 2.94009 50.2108 5.19016 49.7216 7.73372C49.3303 9.78813 48.2542 11.7447 46.9824 13.0165L39.7431 20.2558L45.1237 40.9956C45.3193 41.6804 45.1237 42.4631 44.5367 42.9522L39.6452 47.8437C39.1561 48.3328 38.4713 48.5285 37.7865 48.4306C37.1017 48.3328 36.5147 47.9415 36.2212 47.2567L28.3949 31.4084L21.8403 37.9629L22.7208 42.9522C22.8186 43.637 22.623 44.3218 22.1338 44.811L17.7315 49.2133C17.5359 49.8981 17.0467 50.0937 16.4597 50.0937ZM5.50289 33.1693L12.3509 36.8868C12.7422 37.0825 12.9379 37.3759 13.1336 37.6694L16.8511 44.5175L18.5142 42.8544L17.7315 37.8651C17.6337 37.1803 17.8294 36.4955 18.3185 36.0063L27.7101 26.6147C28.1992 26.1256 28.884 25.9299 29.5688 26.0278C30.2537 26.1256 30.8406 26.5169 31.1341 27.2017L38.9604 43.05L40.917 41.0934L35.5364 20.3537C35.3408 19.6689 35.5364 18.8862 36.1234 18.3971L44.1454 10.3751C45.6128 8.90767 46.3955 5.58148 45.515 4.70102C44.6345 3.82055 41.3083 4.70102 39.8409 6.07062L31.8189 14.0926C31.3298 14.5818 30.5471 14.7774 29.8623 14.6796L9.02474 9.29899L7.06815 11.2556L22.9165 19.0819C23.5034 19.3754 23.8948 19.9624 24.0904 20.6472C24.2861 21.332 23.9926 22.0168 23.5034 22.5059L14.1118 31.8975C13.6227 32.3867 12.9379 32.5823 12.2531 32.4845L7.26381 31.604L5.50289 33.1693Z" fill="white"/>
</svg>
