<svg width="50" height="50" viewBox="0 0 50 50" fill="none" xmlns="http://www.w3.org/2000/svg">
<path d="M21.4601 28.531L41.8791 8.11963M22.0405 29.449L26.6705 38.7092C27.7895 40.9469 28.3489 42.0658 29.0537 42.3658C29.6653 42.6263 30.3645 42.579 30.9358 42.239C31.5939 41.8471 31.998 40.6631 32.8066 38.2954L41.5547 12.6757C42.2593 10.6127 42.6114 9.58117 42.3703 8.8988C42.1605 8.30517 41.6937 7.83821 41.1001 7.62849C40.4176 7.3874 39.3862 7.73963 37.323 8.44407L11.7033 17.1923C9.33563 18.0008 8.15178 18.405 7.75988 19.0632C7.41978 19.6343 7.37265 20.3335 7.63303 20.945C7.93307 21.6498 9.05196 22.2094 11.2898 23.3281L20.5499 27.9583C20.9187 28.1427 21.103 28.2348 21.2626 28.3579C21.4045 28.4673 21.5316 28.5944 21.6408 28.736C21.7641 28.8958 21.8562 29.0802 22.0405 29.449Z" stroke="white" stroke-width="3" stroke-linecap="round" stroke-linejoin="round"/>
</svg>
