<svg width="27" height="27" viewBox="0 0 27 27" fill="none" xmlns="http://www.w3.org/2000/svg">
<path d="M10.4063 24.75L9.95635 21.15C9.7126 21.0563 9.48291 20.9438 9.26728 20.8125C9.05166 20.6812 8.84072 20.5406 8.63447 20.3906L5.2876 21.7969L2.19385 16.4531L5.09072 14.2594C5.07197 14.1281 5.0626 14.0016 5.0626 13.8797V13.1203C5.0626 12.9984 5.07197 12.8719 5.09072 12.7406L2.19385 10.5469L5.2876 5.20312L8.63447 6.60938C8.84072 6.45937 9.05635 6.31875 9.28135 6.1875C9.50635 6.05625 9.73135 5.94375 9.95635 5.85L10.4063 2.25H16.5938L17.0438 5.85C17.2876 5.94375 17.5173 6.05625 17.7329 6.1875C17.9485 6.31875 18.1595 6.45937 18.3657 6.60938L21.7126 5.20312L24.8063 10.5469L21.9095 12.7406C21.9282 12.8719 21.9376 12.9984 21.9376 13.1203V13.8797C21.9376 14.0016 21.9188 14.1281 21.8813 14.2594L24.7782 16.4531L21.6845 21.7969L18.3657 20.3906C18.1595 20.5406 17.9438 20.6812 17.7188 20.8125C17.4938 20.9438 17.2688 21.0563 17.0438 21.15L16.5938 24.75H10.4063ZM12.3751 22.5H14.597L14.9907 19.5188C15.572 19.3687 16.111 19.1484 16.6079 18.8578C17.1048 18.5672 17.5595 18.2156 17.972 17.8031L20.7563 18.9563L21.8532 17.0438L19.4345 15.2156C19.5282 14.9531 19.5938 14.6766 19.6313 14.3859C19.6688 14.0953 19.6876 13.8 19.6876 13.5C19.6876 13.2 19.6688 12.9047 19.6313 12.6141C19.5938 12.3234 19.5282 12.0469 19.4345 11.7844L21.8532 9.95625L20.7563 8.04375L17.972 9.225C17.5595 8.79375 17.1048 8.43281 16.6079 8.14219C16.111 7.85156 15.572 7.63125 14.9907 7.48125L14.6251 4.5H12.4032L12.0095 7.48125C11.4282 7.63125 10.8892 7.85156 10.3923 8.14219C9.89541 8.43281 9.44072 8.78438 9.02822 9.19688L6.24385 8.04375L5.14697 9.95625L7.56572 11.7562C7.47197 12.0375 7.40635 12.3187 7.36885 12.6C7.33135 12.8812 7.3126 13.1812 7.3126 13.5C7.3126 13.8 7.33135 14.0906 7.36885 14.3719C7.40635 14.6531 7.47197 14.9344 7.56572 15.2156L5.14697 17.0438L6.24385 18.9563L9.02822 17.775C9.44072 18.2063 9.89541 18.5672 10.3923 18.8578C10.8892 19.1484 11.4282 19.3687 12.0095 19.5188L12.3751 22.5ZM13.5563 17.4375C14.6438 17.4375 15.572 17.0531 16.3407 16.2844C17.1095 15.5156 17.4938 14.5875 17.4938 13.5C17.4938 12.4125 17.1095 11.4844 16.3407 10.7156C15.572 9.94688 14.6438 9.5625 13.5563 9.5625C12.4501 9.5625 11.5173 9.94688 10.7579 10.7156C9.99854 11.4844 9.61885 12.4125 9.61885 13.5C9.61885 14.5875 9.99854 15.5156 10.7579 16.2844C11.5173 17.0531 12.4501 17.4375 13.5563 17.4375Z" fill="#1D1B20"/>
</svg>
